<?xml version="1.0" encoding="iso-8859-1"?>
<!-- Generator: Adobe Illustrator 19.0.0, SVG Export Plug-In . SVG Version: 6.00 Build 0)  -->
<svg version="1.1" id="Capa_1" xmlns="http://www.w3.org/2000/svg" xmlns:xlink="http://www.w3.org/1999/xlink" x="0px" y="0px"
	 viewBox="0 0 512 512" style="enable-background:new 0 0 512 512;" xml:space="preserve">
<path style="fill:#76BDF6;" d="M359.724,35.31h-70.621v35.31h44.138V476.69H50.759V70.621h44.138V35.31H24.276
	c-4.873,0-8.828,3.955-8.828,8.828v459.034c0,4.873,3.955,8.828,8.828,8.828h335.448c4.873,0,8.828-3.955,8.828-8.828V44.138
	C368.552,39.265,364.597,35.31,359.724,35.31z"/>
<path style="fill:#3689C9;" d="M94.897,79.448h194.207V35.31H227.31C227.31,15.81,211.5,0,192,0s-35.31,15.81-35.31,35.31H94.897
	V79.448z"/>
<path style="fill:#FFDDBA;" d="M94.897,79.448v-8.828H50.759V476.69h282.483V70.621h-44.138v8.828H94.897z"/>
<path style="fill:#3689C9;" d="M192,132.414c-58.5,0-105.931,47.431-105.931,105.931S133.5,344.276,192,344.276
	s105.931-47.431,105.931-105.931S250.5,132.414,192,132.414z M262.621,264.828h-44.138v44.138h-52.966v-44.138h-44.138v-52.966
	h44.138v-44.138h52.966v44.138h44.138V264.828z"/>
<polygon style="fill:#E84F4F;" points="218.483,167.724 165.517,167.724 165.517,211.862 121.379,211.862 121.379,264.828 
	165.517,264.828 165.517,308.966 218.483,308.966 218.483,264.828 262.621,264.828 262.621,211.862 218.483,211.862 "/>
<path style="fill:#3689C9;" d="M492.138,66.207h-13.241v-4.414c0-4.873-3.955-8.828-8.828-8.828h-8.828
	c-4.873,0-8.828,3.955-8.828,8.828v4.414h-13.241c-2.436,0-4.414,1.977-4.414,4.414v13.241H412.69c-2.436,0-4.414,1.977-4.414,4.414
	v185.379h8.828V92.69h17.655v339.862l0.362,1.766l26.121,60.91V512h8.828v-16.772l26.121-60.91l0.362-1.765V70.621
	C496.552,68.184,494.574,66.207,492.138,66.207z"/>
<rect x="434.759" y="264.828" style="fill:#E84F4F;" width="61.793" height="35.31"/>
<g style="opacity:0.14;">
	<polygon points="333.241,79.448 333.241,476.69 64,476.69 64,485.517 346.483,485.517 346.483,79.448 	"/>
</g>
<g>
</g>
<g>
</g>
<g>
</g>
<g>
</g>
<g>
</g>
<g>
</g>
<g>
</g>
<g>
</g>
<g>
</g>
<g>
</g>
<g>
</g>
<g>
</g>
<g>
</g>
<g>
</g>
<g>
</g>
</svg>
